<?xml version="1.0" standalone="no"?>
<!DOCTYPE svg PUBLIC "-//W3C//DTD SVG 20010904//EN"
 "http://www.w3.org/TR/2001/REC-SVG-20010904/DTD/svg10.dtd">
<svg version="1.0" xmlns="http://www.w3.org/2000/svg"
 width="300.000000pt" height="300.000000pt" viewBox="0 0 300.000000 300.000000"
 preserveAspectRatio="xMidYMid meet">

<g transform="translate(0.000000,386.000000) scale(0.100000,-0.100000)"
fill="#FFFFFF" stroke="none">
<path d="M1987 3153 c-4 -3 -7 -129 -7 -280 l0 -273 135 0 135 0 0 -65 0 -65
-204 0 c-187 0 -205 -2 -228 -20 -14 -11 -62 -93 -108 -186 l-83 -167 11 -59
c17 -89 58 -135 145 -162 16 -5 17 -38 15 -553 l-3 -548 -78 -3 c-68 -2 -78
-5 -75 -20 3 -16 86 -17 1303 -17 1149 0 1300 2 1300 15 0 12 -18 16 -87 18
l-88 3 0 549 0 548 38 13 c88 28 132 90 132 184 0 49 -9 73 -80 215 -63 126
-86 163 -109 175 -24 12 -72 15 -251 15 l-220 0 0 65 0 64 158 3 157 3 0 275
0 275 -951 3 c-523 1 -954 -1 -957 -5z m1863 -273 l0 -230 -87 2 -88 2 83 3
82 4 0 219 0 220 -60 0 -60 0 0 -97 c0 -114 -19 -166 -78 -210 -35 -26 -42
-28 -124 -25 l-88 3 0 39 0 39 63 3 c54 3 62 5 62 23 0 18 -8 20 -62 23 l-63
3 0 39 0 39 83 3 c74 3 82 5 82 23 0 19 -7 20 -109 20 l-108 0 1 -136 c2 -129
1 -137 -18 -142 -25 -6 -42 7 -68 54 l-20 35 23 28 c28 32 33 96 9 116 -18 15
-20 34 -2 24 8 -5 8 -2 -2 9 -15 19 -26 23 -15 5 5 -8 2 -9 -12 -3 -32 15
-163 18 -180 5 -11 -10 -14 -41 -14 -141 l0 -129 -52 0 c-29 -1 -64 -7 -78
-15 -14 -8 -31 -14 -39 -15 -8 0 6 10 30 23 82 42 112 148 61 216 -53 72 -139
92 -205 47 -19 -13 -38 -21 -42 -18 -4 4 -5 0 -3 -8 1 -8 -1 -14 -7 -13 -11 1
-17 -31 -18 -92 0 -49 5 -84 13 -82 3 2 21 -13 40 -32 27 -27 30 -31 11 -21
-34 18 -151 14 -165 -6 -8 -10 -10 20 -8 115 l3 130 42 3 c34 2 42 7 42 23 0
19 -8 20 -102 23 -91 2 -102 5 -97 20 4 13 3 14 -4 4 -5 -7 -9 -25 -8 -40 1
-24 6 -27 39 -30 l37 -3 0 -115 c0 -85 4 -121 15 -138 13 -20 13 -23 0 -23 -8
0 -12 4 -9 9 3 5 0 16 -7 24 -16 19 -125 17 -156 -4 -12 -7 -28 -12 -35 -9 -8
3 -6 6 5 6 10 1 29 13 42 27 36 39 34 96 -4 135 -16 16 -38 29 -48 29 -40 0
-57 46 -27 71 13 11 21 10 49 -5 18 -10 38 -15 43 -12 14 8 9 54 -8 69 -10 10
-11 9 -5 -2 6 -11 4 -13 -11 -6 -49 21 -73 18 -104 -13 -42 -42 -42 -90 1
-126 17 -14 38 -26 48 -26 44 0 59 -74 19 -89 -13 -5 -25 -6 -28 -2 -6 7 -27
13 -60 16 -19 2 -26 -2 -26 -16 0 -10 2 -16 5 -14 6 7 31 -16 31 -28 0 -7 -4
-7 -12 1 -8 8 -54 12 -140 12 l-129 0 2 180 1 180 914 0 914 0 0 -230z m-922
84 c12 -8 20 -20 16 -25 -3 -5 0 -8 7 -7 8 2 17 -12 23 -33 12 -50 -16 -99
-66 -116 -37 -12 -82 -7 -72 8 3 5 -2 6 -10 3 -24 -9 -58 53 -52 96 11 72 98
114 154 74z m307 6 c-4 -6 1 -7 11 -3 14 5 16 3 11 -11 -4 -10 -3 -15 3 -11
16 10 11 -42 -6 -59 -10 -11 -34 -16 -70 -16 l-54 0 0 55 0 55 56 0 c34 0 53
-4 49 -10z m12 -187 l21 -38 -31 2 c-18 1 -49 2 -69 2 -37 1 -38 2 -38 36 l0
35 48 0 c45 0 50 -2 69 -37z m-184 -58 c-3 -9 -8 -14 -10 -11 -3 3 -2 9 2 15
9 16 15 13 8 -4z m35 -10 c-3 -3 -9 2 -12 12 -6 14 -5 15 5 6 7 -7 10 -15 7
-18z m34 3 c-7 -7 -12 -8 -12 -2 0 6 3 14 7 17 3 4 9 5 12 2 2 -3 -1 -11 -7
-17z m273 4 c-3 -3 -11 0 -18 7 -9 10 -8 11 6 5 10 -3 15 -9 12 -12z m215 14
c0 -2 -7 -7 -16 -10 -8 -3 -12 -2 -9 4 6 10 25 14 25 6z m-773 -12 c-3 -3 -12
-4 -19 -1 -8 3 -5 6 6 6 11 1 17 -2 13 -5z m483 -4 c-8 -5 -19 -10 -25 -10 -5
0 -3 5 5 10 8 5 20 10 25 10 6 0 3 -5 -5 -10z m-690 -66 c0 -2 -48 -3 -107 -2
-100 1 -103 2 -38 7 68 6 145 3 145 -5z m450 0 c0 -2 -66 -3 -147 -2 l-148 2
130 6 c121 5 165 3 165 -6z m280 4 c0 -4 -7 -8 -15 -8 -8 0 -15 4 -15 8 0 5 7
9 15 9 8 0 15 -4 15 -9z m-1307 -5 c-7 -2 -21 -2 -30 0 -10 3 -4 5 12 5 17 0
24 -2 18 -5z m140 0 c-24 -2 -62 -2 -85 0 -24 2 -5 4 42 4 47 0 66 -2 43 -4z
m214 1 c-3 -3 -12 -4 -19 -1 -8 3 -5 6 6 6 11 1 17 -2 13 -5z m856 -1 c-13 -2
-35 -2 -50 0 -16 2 -5 4 22 4 28 0 40 -2 28 -4z m260 0 c-13 -2 -33 -2 -45 0
-13 2 -3 4 22 4 25 0 35 -2 23 -4z m84 1 c-3 -3 -12 -4 -19 -1 -8 3 -5 6 6 6
11 1 17 -2 13 -5z m-1257 -119 l0 -65 -30 0 -30 0 0 65 0 65 30 0 30 0 0 -65z
m1070 0 l0 -65 -510 0 -510 0 0 65 0 65 510 0 510 0 0 -65z m104 2 l0 -62 -32
-3 -32 -3 0 65 0 66 33 0 32 0 -1 -63z m-1474 -110 c0 -2 -21 -63 -46 -137
-25 -74 -50 -168 -54 -209 -10 -82 -26 -113 -73 -141 -92 -57 -207 13 -207
124 0 40 149 350 172 359 13 6 208 9 208 4z m120 -16 c0 -17 -13 -69 -46 -179
-10 -34 -15 -77 -12 -117 3 -54 8 -68 31 -89 28 -26 70 -33 96 -17 9 6 12 23
10 54 -2 25 -1 43 4 40 4 -2 7 -23 7 -46 0 -131 -157 -185 -239 -81 -40 51
-38 98 15 257 26 80 52 143 58 140 5 -3 6 -1 2 6 -4 6 -5 20 -1 30 8 26 75 28
75 2z m169 7 c-1 -7 -5 -24 -9 -38 -7 -21 -8 -20 -7 12 1 21 5 38 10 38 4 0 7
-6 6 -12z m267 -68 c-4 -44 -11 -138 -15 -210 -9 -142 -18 -166 -74 -200 -90
-55 -207 14 -207 123 0 20 19 112 41 202 l41 165 111 0 110 0 -7 -80z m65 -67
c-12 -131 -12 -152 1 -184 31 -72 121 -85 178 -24 21 23 23 32 24 186 1 120 4
163 14 166 9 4 12 -41 12 -204 0 -191 -2 -211 -20 -241 -47 -77 -160 -81 -218
-7 -31 39 -34 86 -17 265 8 91 15 171 15 178 0 6 6 12 13 12 9 0 9 -30 -2
-147z m546 -28 c7 -93 10 -189 7 -212 -18 -139 -194 -167 -260 -41 -11 21 -14
75 -14 228 l0 201 128 -3 127 -3 12 -170z m76 20 c8 -156 21 -225 43 -225 7 0
14 -5 16 -11 6 -17 64 -14 93 5 45 29 49 56 36 224 -7 85 -10 156 -7 159 3 3
11 3 18 0 9 -3 19 -51 31 -148 24 -198 23 -263 -4 -301 -40 -56 -119 -73 -176
-38 -59 35 -65 56 -74 228 -4 86 -11 181 -14 210 -5 47 -3 53 12 50 16 -3 19
-21 26 -153z m535 -25 c52 -200 52 -229 -3 -288 -31 -35 -37 -37 -93 -37 -51
0 -65 4 -87 25 -39 37 -55 73 -55 127 0 44 -21 235 -36 321 l-5 33 117 -3 117
-3 45 -175z m176 170 c20 -7 43 -44 102 -162 74 -147 76 -154 72 -211 -4 -52
-9 -64 -36 -88 -38 -34 -70 -43 -119 -34 -49 9 -103 63 -102 101 1 22 3 24 6
9 11 -42 51 -46 99 -10 43 33 55 96 29 158 -9 23 -24 60 -32 82 -8 22 -28 68
-44 103 -31 66 -27 72 25 52z m-146 -65 c0 -16 -2 -15 -8 5 -11 34 -11 60 0
35 5 -11 8 -29 8 -40z m-1557 -86 c-6 -24 -9 -28 -10 -12 -1 24 9 56 16 50 2
-3 0 -20 -6 -38z m1589 10 c0 -5 -4 -9 -10 -9 -5 0 -10 7 -10 16 0 8 5 12 10
9 6 -3 10 -10 10 -16z m-3 -41 c-3 -8 -6 -5 -6 6 -1 11 2 17 5 13 3 -3 4 -12
1 -19z m-1600 -30 c-3 -8 -6 -5 -6 6 -1 11 2 17 5 13 3 -3 4 -12 1 -19z m-10
-40 c-3 -8 -6 -5 -6 6 -1 11 2 17 5 13 3 -3 4 -12 1 -19z m1630 -10 c-3 -8 -6
-5 -6 6 -1 11 2 17 5 13 3 -3 4 -12 1 -19z m-1915 -223 c61 -78 187 -82 263
-8 l36 35 20 -26 c62 -79 191 -84 265 -9 35 35 36 35 50 15 19 -27 71 -58 113
-67 49 -10 118 13 158 52 l34 35 20 -26 c62 -79 191 -83 266 -9 l34 35 20 -26
c62 -79 191 -84 265 -10 l35 36 20 -26 c62 -79 188 -84 265 -11 l36 34 24 -29
c14 -16 41 -35 59 -42 l35 -12 0 -553 0 -553 -65 0 -65 0 0 369 c0 203 -3 376
-6 385 -5 14 -38 16 -265 16 -200 0 -261 -3 -264 -13 -3 -7 -6 -179 -8 -382
l-2 -370 -753 -3 -752 -2 2 552 3 552 33 10 c17 5 47 24 65 42 17 18 34 33 36
33 2 1 12 -10 23 -24z m1838 -805 l0 -360 -225 0 -225 0 0 360 0 360 225 0
225 0 0 -360z"/>
<path d="M2926 3049 c2 -4 13 -7 24 -6 23 2 17 10 -10 12 -10 1 -17 -2 -14 -6z"/>
<path d="M2776 3033 c-6 -14 -5 -15 5 -6 7 7 10 15 7 18 -3 3 -9 -2 -12 -12z"/>
<path d="M2255 3020 c10 -11 20 -20 23 -20 3 0 -3 9 -13 20 -10 11 -20 20 -23
20 -3 0 3 -9 13 -20z"/>
<path d="M2990 3036 c0 -2 7 -7 16 -10 8 -3 12 -2 9 4 -6 10 -25 14 -25 6z"/>
<path d="M2986 3012 c-3 -5 1 -9 9 -9 8 0 12 4 9 9 -3 4 -7 8 -9 8 -2 0 -6 -4
-9 -8z"/>
<path d="M2725 3000 c-3 -6 1 -7 9 -4 18 7 21 14 7 14 -6 0 -13 -4 -16 -10z"/>
<path d="M2893 2925 c0 -8 4 -12 9 -9 5 3 6 10 3 15 -9 13 -12 11 -12 -6z"/>
<path d="M2053 1995 c0 -8 4 -12 9 -9 5 3 6 10 3 15 -9 13 -12 11 -12 -6z"/>
<path d="M2161 1997 c2 -2 18 -11 34 -21 l30 -17 -24 20 c-13 12 -28 21 -34
21 -6 0 -8 -1 -6 -3z"/>
<path d="M3457 1989 c7 -7 15 -10 18 -7 3 3 -2 9 -12 12 -14 6 -15 5 -6 -5z"/>
<path d="M4147 2009 c7 -7 15 -10 18 -7 3 3 -2 9 -12 12 -14 6 -15 5 -6 -5z"/>
<path d="M4096 2001 c-3 -4 1 -17 10 -27 14 -18 15 -18 5 2 -6 12 -7 24 -4 28
3 3 4 6 0 6 -3 0 -8 -4 -11 -9z"/>
<path d="M2435 1760 l-480 -5 0 -340 0 -340 555 -5 c305 -3 567 -4 583 -2 l27
3 0 345 0 344 -32 1 c-118 4 -225 3 -653 -1z m352 -109 c-70 -72 -78 -87 -51
-98 11 -4 43 21 103 81 69 69 92 86 116 86 27 0 21 -8 -94 -125 -104 -105
-122 -127 -111 -140 18 -21 29 -13 175 134 71 72 133 131 137 131 5 0 8 -137
8 -305 l0 -305 -535 0 -535 0 0 23 c0 26 32 61 45 50 4 -5 5 -3 2 3 -3 6 23
39 58 74 64 64 82 100 48 100 -10 0 -48 -30 -85 -67 -67 -67 -68 -67 -68 -38
0 25 16 46 85 115 86 85 98 106 69 117 -11 4 -38 -16 -85 -63 l-69 -68 0 182
0 182 427 0 426 0 -66 -69z"/>
<path d="M3442 1168 c2 -39 7 -53 18 -53 11 0 16 14 18 53 3 47 1 52 -18 52
-19 0 -21 -5 -18 -52z"/>
<path d="M802 720 c-142 -15 -299 -85 -349 -156 -97 -136 7 -287 234 -340 90
-21 317 -15 421 11 l72 19 45 -22 c25 -12 48 -22 50 -22 3 0 5 33 5 74 l0 74
88 56 87 56 -300 0 -300 0 98 -56 c53 -31 97 -63 97 -71 0 -43 -189 -64 -263
-29 -60 29 -82 69 -82 148 0 52 5 73 21 95 51 69 122 90 241 73 91 -12 165
-40 242 -90 l61 -40 0 106 0 106 -41 -24 -41 -25 -64 24 c-51 18 -221 47 -244
42 -3 -1 -38 -5 -78 -9z"/>
<path d="M3689 579 c-85 -9 -160 -42 -203 -89 -83 -93 -43 -194 101 -251 50
-20 76 -23 188 -23 98 0 141 5 175 18 56 21 90 53 90 83 0 28 0 28 -47 1 -34
-20 -52 -23 -155 -23 -103 0 -120 2 -145 21 -15 12 -29 31 -31 43 -3 21 -2 21
188 21 l191 0 -7 23 c-40 131 -164 194 -345 176z m150 -83 c11 -10 21 -26 24
-37 5 -18 -1 -19 -99 -19 -80 0 -104 3 -104 13 0 15 36 51 60 60 26 11 100 0
119 -17z"/>
<path d="M2306 569 c-49 -12 -135 -54 -163 -81 -77 -71 -35 -183 89 -238 208
-92 538 -7 538 138 0 60 -38 105 -127 149 -74 36 -81 38 -187 40 -61 1 -128
-2 -150 -8z m210 -82 c34 -30 45 -108 20 -155 -30 -58 -138 -68 -185 -18 -42
45 -36 147 12 181 35 24 120 20 153 -8z"/>
<path d="M3017 570 c-56 -14 -129 -54 -165 -91 -83 -85 -35 -186 114 -242 49
-17 79 -21 174 -21 128 1 185 16 232 61 31 30 38 82 14 102 -11 9 -16 5 -26
-20 -19 -45 -76 -69 -168 -69 -119 0 -162 32 -162 120 0 30 7 48 29 72 27 30
34 33 89 33 67 0 102 -21 102 -60 0 -45 107 -43 137 1 14 22 14 26 -2 50 -30
47 -97 68 -220 71 -60 1 -127 -2 -148 -7z"/>
<path d="M1430 566 c0 -2 29 -23 65 -45 l65 -41 0 -83 0 -82 -62 -40 -62 -40
116 -3 c64 -1 172 -1 240 0 l123 3 -77 43 c-51 28 -78 49 -78 60 1 88 44 152
103 152 46 0 62 -20 49 -59 -10 -29 -10 -29 32 -35 57 -9 116 12 135 46 36 63
-36 128 -142 128 -68 0 -116 -20 -152 -62 l-25 -30 0 46 0 46 -165 0 c-91 0
-165 -2 -165 -4z"/>
<path d="M4050 566 c0 -2 29 -23 65 -46 l65 -42 0 -82 0 -81 -67 -43 -67 -42
245 0 c274 0 260 -6 137 64 -43 24 -48 31 -48 62 0 77 45 134 107 134 39 0 60
-29 43 -59 -14 -28 -14 -28 31 -35 55 -9 115 9 135 40 42 63 -34 134 -142 134
-68 0 -100 -13 -146 -58 l-38 -36 0 47 0 47 -160 0 c-88 0 -160 -2 -160 -4z"/>
<path d="M4733 527 c67 -36 99 -64 208 -181 l129 -139 -18 -31 c-32 -55 -101
-39 -86 20 5 18 1 23 -24 29 -62 13 -152 -28 -152 -70 0 -54 91 -90 210 -83
139 8 154 23 300 284 68 121 78 134 132 169 32 20 58 39 58 41 0 2 -77 4 -172
4 l-172 0 42 -36 c23 -19 42 -40 42 -45 0 -7 -54 -102 -68 -119 -5 -6 -111
112 -112 125 0 6 17 24 37 42 l38 32 -235 0 -235 1 78 -43z"/>
</g>
</svg>
